<svg width="217" height="293" viewBox="0 0 217 293" fill="none" xmlns="http://www.w3.org/2000/svg">
<path d="M189.3 29.1004C189.3 29.0004 189.3 28.9004 189.2 28.8004C189.2 28.7004 189.1 28.6004 189 28.5004L188.9 28.4004L148 6.10039C147.8 6.00039 147.6 6.00039 147.4 6.00039C140.4 7.00039 137.3 5.80039 133.1 4.20039C128.6 2.30039 123.8 1.20039 118.9 0.900391H118.5H117H116.3H115H114.2L112.8 1.00039L112 1.20039C111.3 1.30039 110.5 1.40039 109.7 1.50039C103.6 2.30039 97.7 4.20039 92.3 7.10039L91.2 7.70039H91.1L90.1 8.30039L90 8.40039L89 9.00039L88.8 9.10039C87.8 9.70039 86.9 10.3004 86 10.9004V11.0004L84.9 11.7004L84.6 11.9004L83.4 12.6004L83.1 12.8004L82 13.4004L81.6 13.6004C81.3 13.8004 80.9 14.0004 80.5 14.1004L79.9 14.4004L80 14.5004L79.3 14.8004H79.2C76.8 15.7004 74.4 16.3004 71.9 16.6004L70.6 16.8004L70 16.9004L69.3 17.0004H68.6H68H67.3H66.2H65.9C65.5 17.0004 65.1 17.0004 64.7 16.9004H64.3L63.7 16.8004H63.4C61.3 16.4004 59.3 15.8004 57.4 15.0004C52.2 13.0004 45.8 10.6004 33.9 12.3004L33.7 12.4004H33.6L33.5 12.5004H33.4C33.3 12.6004 33.3 12.6004 33.2 12.7004C33.2 12.8004 33.1 12.8004 33.1 12.9004C33.1 12.9004 33.1 12.9004 33.1 13.0004V13.1004V33.7004C33.1 34.0004 33.3 34.3004 33.6 34.5004L74.3 56.8004H74.4C74.5 56.8004 74.6 56.9004 74.6 56.9004H74.7H75C82.1 55.9004 85.1 57.1004 89.3 58.7004C94.4 60.8004 99.8 62.0004 105.3 62.0004C107.8 62.0004 110.3 61.8004 112.8 61.4004C124.6 59.7004 131.1 55.5004 136.2 52.1004C140.5 49.3004 143.5 47.3004 150.6 46.3004C157.7 45.3004 160.6 46.4004 165 48.1004C170.2 50.1004 176.6 52.5004 188.5 50.8004C188.9 50.7004 189.3 50.4004 189.3 49.9004V29.1004ZM147.4 7.80039L185.4 28.5004H185.2C184.6 28.5004 184.1 28.6004 183.6 28.6004C183.1 28.6004 182.6 28.6004 182.1 28.6004H182C181.5 28.6004 181.1 28.5004 180.7 28.5004H180.5C180.1 28.4004 179.6 28.4004 179.2 28.3004H179.1C178.7 28.2004 178.3 28.1004 177.9 28.0004H177.8C177.4 27.9004 177 27.8004 176.6 27.6004L176.4 27.5004L175.3 27.1004L175.1 27.0004L174 26.5004L173.1 26.2004L172.8 26.1004L172.1 25.9004L171.8 25.8004L171 25.5004L170.8 25.4004L169.8 25.1004L169.5 25.0004L168.8 24.8004L168.4 24.7004L167.8 24.6004L136.4 7.30039C140 8.30039 143.8 8.50039 147.4 7.80039ZM146.1 24.5004L144.8 24.8004L144.3 24.9004C143.7 25.1004 143.1 25.2004 142.5 25.4004L142.3 25.5004L140.9 26.0004L140.4 26.2004L139.4 26.6004L138.8 26.8004L137.9 27.2004L137.3 27.4004L136.5 27.8004L136.1 28.0004L97.2 6.80039C101.2 5.10039 105.4 4.00039 109.7 3.40039L148 24.2004L147 24.4004L146.1 24.5004ZM125.6 34.0004L124.5 34.7004L124.2 34.9004L123.1 35.5004L122.8 35.7004L121.8 36.2004L121.6 36.3004L82.8 15.1004L82.9 15.0004L83.8 14.5004L83.9 14.4004L84.9 13.8004L85.2 13.6004L86 13.1004L86.4 12.9004L87 12.5004L87.3 12.3004L88.7 11.4004L89 11.2004L89.6 10.8004L90 10.6004L90.6 10.2004L91 10.0004L91.7 9.60039L92 9.40039L92.7 9.00039L93.1 8.80039L93.9 8.40039L94.3 8.20039L95.1 7.80039L95.2 7.70039L134 28.8004L133.8 28.9004L133.3 29.2004L132.6 29.6004L132.2 29.9004L131.5 30.3004L131.1 30.5004L130.4 30.9004L130.3 31.0004L130.1 31.1004L129.3 31.6004L129 31.8004L128.7 32.0004L128.4 32.2004L128.1 32.4004L128 32.5004L127.2 33.1004L127.1 33.2004L125.9 34.0004H125.6ZM118.2 37.7004L117.8 37.8004L116.7 38.1004L116.3 38.2004C115.8 38.3004 115.3 38.4004 114.8 38.5004L114.4 38.6004C113.8 38.7004 113.3 38.8004 112.7 38.9004L111.4 39.1004H110.9L110.2 39.2004H109.6H109H108.4H107.3H106.8L105.8 39.1004H105.4L104.8 39.0004H104.5L103.9 38.9004H103.8L103 38.7004L66.4 18.8004H67.3H68.2H68.6H69.4L70.1 18.7004L70.8 18.6004L72.2 18.3004L73.5 18.1004L73.9 18.0004L74.7 17.8004L75.2 17.7004L75.8 17.6004L76.5 17.4004L76.8 17.3004C78.2 16.9004 79.5 16.5004 80.8 15.9004L119.6 37.0004L119.4 37.1004C119 37.4004 118.6 37.5004 118.2 37.7004ZM116.2 2.80039H117.9H118.9H119.6L120.4 2.90039L121.2 3.00039L121.9 3.10039L122.9 3.20039L123.4 3.30039C123.9 3.40039 124.3 3.50039 124.8 3.60039L125.3 3.70039L126.3 3.90039L126.6 4.00039L162.4 23.5004H162H161.7L160.6 23.4004H160H159.7H158.9H156.6L155.4 23.5004H154.8H154.3H153.7L152.9 23.6004L152.4 23.7004L151 23.9004L112.7 3.00039C113.8 2.90039 114.9 2.80039 115.9 2.80039H116.2ZM56.9 16.6004C58.3 17.2004 59.8 17.7004 61.3 18.1004L92.8 35.3004L91.9 35.0004H91.7L90.5 34.7004H90.3L89.2 34.5004L88.9 34.4004L87.9 34.2004H87.6L86.1 33.9004H86L84.7 33.8004H84.3H83.1H82.3H81.5H80.8L79.5 34.0004H79C78.4 34.0004 77.7 34.1004 77 34.2004L76.5 34.3004L75 34.4004L37 13.6004C43.8 12.9004 50.6 13.9004 56.9 16.6004ZM35 14.6004L74 35.8004V45.8004V54.5004L35 33.2004V14.6004ZM187.5 49.0004C180.1 50.1004 172.5 49.2004 165.7 46.3004C161.2 44.6004 158 43.4004 150.5 44.4004C143 45.4004 139.8 47.6004 135.3 50.5004C130.3 53.8004 124 57.9004 112.6 59.5004C101.2 61.1004 95 58.8004 90 56.9004C86.8 55.7004 84.1 54.6004 79.8 54.6004C78.5 54.6004 77.1 54.7004 75.8 54.9004V36.1004L76.5 36.0004L77.5 35.9004L78.5 35.8004L79.5 35.7004H80.4H81.3H83H83.8H84.7H85.4L86.2 35.8004L86.9 35.9004L87.7 36.0004L88.3 36.1004L89.1 36.2004L89.7 36.3004L90.4 36.4004L90.9 36.5004L91.6 36.7004L92.1 36.8004L92.8 37.0004L93.3 37.1004L93.9 37.3004L94.3 37.5004L94.9 37.7004L95.3 37.9004L95.9 38.1004L96.2 38.2004L97.8 38.8004L98.8 39.2004L99.1 39.3004L100.1 39.7004L101.1 40.0004L101.4 40.1004L102.2 40.3004H102.3L103.3 40.5004L103.8 40.6004L104.5 40.7004L105.3 40.8004L105.9 40.9004H106.6H107.1H107.7C109.4 40.9004 111 40.8004 112.7 40.5004L114 40.3004L115 40.1004L115.4 40.0004L116.5 39.8004H116.6C119 39.2004 121.3 38.4004 123.4 37.2004H123.5C124 36.9004 124.4 36.7004 124.9 36.4004L125.1 36.3004L126.4 35.5004L126.6 35.4004L128 34.5004L128.9 33.9004L129.1 33.8004L129.9 33.3004L130.3 33.1004L130.9 32.7004L131.4 32.4004L131.9 32.1004L132.5 31.8004L133 31.5004L133.6 31.2004L134.2 30.9004L134.8 30.6004L135.4 30.3004L136 30.0004C140.7 27.8004 145.6 26.3004 150.8 25.7004C151.5 25.6004 152.3 25.5004 153 25.4004L154 25.3004L155.1 25.2004H156.2H157.1H159.1H160L161.3 25.3004H161.8C162.4 25.3004 163 25.4004 163.5 25.5004L164 25.6004L165.4 25.8004L165.8 25.9004C166.4 26.0004 166.9 26.1004 167.5 26.3004C169.6 26.8004 171.6 27.5004 173.6 28.3004L174.6 28.7004L174.9 28.8004L176 29.2004H176.1L177.1 29.5004L177.3 29.6004L178.4 29.9004H178.6L179.6 30.1004H179.7C180.1 30.2004 180.5 30.2004 180.8 30.3004H181.1C181.5 30.3004 181.9 30.4004 182.3 30.4004H182.4C182.8 30.4004 183.3 30.4004 183.8 30.4004H184.8H185.3H185.9H186.5L187.2 30.3004L187.8 30.2004H188L187.5 49.0004Z" fill="#FF361C" stroke="#FF361C" stroke-miterlimit="10"/>
<path d="M216 205.4C216 205.3 215.9 205.2 215.8 205.1C215.7 205 215.7 205 215.6 204.9L174.8 182.7C174.6 182.6 174.4 182.6 174.2 182.6L149.4 186.1C149.3 186.1 149.3 186.1 149.2 186.2H149.1C149 186.3 148.9 186.3 148.8 186.4L148.7 186.5C148.6 186.6 148.6 186.7 148.6 186.8V187C148.4 187.9 148.2 188.7 148 189.6C147.9 189.9 147.9 190.1 147.8 190.3C147.6 191 147.4 191.6 147.2 192.3L147.1 192.8C146.9 193.6 146.6 194.3 146.4 195V195.1C144.9 199.6 142.9 203.9 140.6 208.1C140.2 208.8 139.8 209.5 139.4 210.2C139.1 210.7 138.8 211.1 138.5 211.6C138.1 212.3 137.6 213 137.1 213.7C136.7 214.2 136.4 214.7 136 215.2C135.6 215.8 135.2 216.3 134.7 216.9L133.9 217.9C133.2 218.7 132.6 219.5 131.9 220.3C131.2 221.1 130.7 221.6 130.1 222.2C129.8 222.5 129.5 222.8 129.2 223.1C128.9 223.4 128.6 223.7 128.3 224.1C118.4 233.7 106 239.6 91.4 241.7C87.5 242.3 83.5 242.5 79.6 242.3C76.9 238.4 74.7 234.3 73 229.9C69.6 221.1 67.9 211.7 68 202.2C68 192.3 69.7 182.4 73.1 173.1C76.3 164.3 80.9 156 86.8 148.7C92.5 141.7 99.4 135.7 107.2 131.1C115 126.5 123.7 123.5 132.7 122.3C135.7 121.9 138.7 121.6 141.8 121.6C144.9 126.9 147.2 132.6 148.6 138.6C148.7 138.8 148.8 139.1 149 139.2L189.8 161.4C189.9 161.4 190 161.5 190.1 161.5H190.2H190.3L215.1 158C215.6 157.9 215.9 157.5 215.9 157C214.1 147 210.6 137.4 205.5 128.6C200.8 120.6 194.7 113.6 187.3 107.9C184.8 106 182.2 104.3 179.4 102.8C179.4 102.8 179.3 102.8 179.3 102.7L138.5 80.4999C133.2 77.5999 127.5 75.4999 121.7 74.1999C111.8 71.9999 101.6 71.6999 91.6 73.1999C82.1 74.4999 72.9 77.2999 64.3 81.2999C63 81.8999 61.7 82.5999 60.4 83.2999C59 83.9999 57.6 84.7999 56.3 85.5999C55 86.3999 53.7 87.0999 52.4 87.8999L51.4 88.5999C50.8 88.9999 50.1 89.3999 49.5 89.8999L48.5 90.5999L47.9 90.9999C46.8 91.7999 45.7 92.5999 44.6 93.4999L44.4 93.5999C43.2 94.5999 42 95.5999 40.8 96.5999H40.7C40 97.1999 39.3 97.7999 38.6 98.3999C38.2 98.7999 37.8 99.1999 37.3 99.5999L37 99.7999C35.9 100.8 34.8 101.9 33.7 103L33.6 103.1C32.6 104.1 31.7 105.1 30.8 106.1L30.2 106.8L29.7 107.4C28.9 108.3 28.1 109.2 27.4 110.1C26.4 111.3 25.4 112.5 24.5 113.8C24.3 114.1 24.1 114.4 23.8 114.7C23.1 115.6 22.5 116.5 21.8 117.4L21.6 117.7L21.4 117.9C20.6 119.1 19.8 120.2 19.1 121.4L18.8 122C17.4 124.2 16 126.5 14.8 128.8C14.6 129.1 14.5 129.5 14.3 129.8L13.8 130.7C13.3 131.7 12.7 132.8 12.2 133.9L11.6 135.1C11.1 136.1 10.7 137.1 10.2 138.2C10 138.6 9.80003 139 9.70003 139.4C9.10003 140.8 8.50002 142.3 8.00002 143.7L7.70003 144.5C7.40003 145.2 7.20002 146 6.90002 146.7C6.60002 147.4 6.40003 148.1 6.20003 148.8C5.90003 149.7 5.70002 150.6 5.40002 151.5C5.20002 152.2 5.00002 152.8 4.80002 153.5C4.50002 154.4 4.30003 155.4 4.10003 156.3C3.90003 157 3.80003 157.6 3.60003 158.3C3.40003 159.2 3.20002 160.2 3.00002 161.2C2.90002 161.9 2.70003 162.6 2.60003 163.2C2.40003 164.2 2.30003 165.1 2.10003 166.1C2.00003 166.8 1.90002 167.5 1.80002 168.2C1.70002 169.2 1.60002 170.2 1.50002 171.2C1.40002 171.9 1.30002 172.5 1.30002 173.2C1.20002 174.3 1.20003 175.4 1.10003 176.5C1.10003 177.1 1.00002 177.7 1.00002 178.3C0.900025 180 0.900024 181.7 0.900024 183.4C0.900024 197.3 3.20002 210 7.90002 221.2C12.2 231.9 18.8 241.5 27.2 249.5C31.7 253.7 36.7 257.3 42.1 260.2L83 282.4C83.1 282.4 83.2 282.5 83.2 282.5C94.4 288.6 107 291.8 119.8 291.7C124 291.7 128.2 291.4 132.4 290.8C153.3 287.9 172.6 278.1 187.2 262.9C194.5 255.3 200.6 246.6 205.4 237.2C210.4 227.4 214 216.8 216 206C216 205.9 216 205.8 216 205.6V205.4V205.4ZM135.6 218.6C135.9 218.2 136.3 217.7 136.6 217.3L137.2 216.5L137.7 215.9L176.9 237.2L176.3 238.1L175.9 238.6L175.4 239.2L174.6 240.2L174 240.9L173.7 241.2L173.1 241.9L134 220.6C134.2 220.3 134.5 220 134.7 219.8C134.9 219.6 135.3 219 135.6 218.6ZM140 212.4C140.4 211.8 140.7 211.3 141 210.7L141.4 210.1C141.7 209.7 141.9 209.2 142.2 208.8L181.4 230.2V230.3C181.1 230.8 180.9 231.2 180.6 231.7L180.3 232.2L179.9 232.9C179.7 233.3 179.4 233.7 179.2 234.1L178.8 234.7L178.4 235.2L177.9 236L138.7 214.7C139 214.3 139.3 213.8 139.6 213.4L140 212.4ZM144.9 203.5C145.1 203.1 145.2 202.7 145.4 202.4C145.8 201.4 146.2 200.5 146.6 199.5C146.7 199.3 146.8 199.1 146.9 198.9L186.1 220.2C185.9 220.6 185.8 221 185.6 221.4C185.4 221.8 185.3 222.1 185.2 222.5C185.1 222.9 184.8 223.5 184.6 223.9C184.4 224.3 184.3 224.6 184.2 224.9C183.9 225.4 183.7 226 183.4 226.5C183.3 226.8 183.1 227 183 227.3C182.8 227.7 182.6 228.1 182.4 228.5L148.9 210.3L143.2 207.2C143.3 207 143.4 206.7 143.6 206.5C143.9 205.5 144.4 204.5 144.9 203.5ZM148.8 193.1L149 192.3C149.4 191 149.8 189.7 150.1 188.3L176.9 203L189.3 209.7L189.2 210.2C188.9 211.4 188.6 212.5 188.3 213.6C188.2 213.9 188.1 214.2 188 214.5C187.7 215.6 187.3 216.7 186.9 217.8L186.7 218.4L147.5 197.1C147.6 197 147.6 196.8 147.6 196.7C148 195.5 148.4 194.3 148.8 193.1ZM132.8 222L172 243.3L171.6 243.7C171.1 244.2 170.6 244.8 170.1 245.3L169.7 245.7L130.5 224.4C131.2 223.7 131.9 223 132.5 222.3L132.8 222ZM129.1 225.8L168.3 247.1L167.8 247.5L166.8 248.4L165.9 249.2L164.9 250L163.9 250.8L162.9 251.6L161.9 252.3L161.5 252.6L122.4 231.3C124.7 229.6 127 227.7 129.1 225.8ZM120.8 232.5L159.8 253.7L158.8 254.4L157.7 255.1L156.6 255.7L155.5 256.3L154.4 256.9L153.2 257.5L152.6 257.8L113.7 236.7C116.2 235.4 118.6 234 120.8 232.5ZM212.3 205.2L190.4 208.3L152.2 187.5L174.1 184.4L212.3 205.2ZM91.7 243.4C98.6 242.5 105.4 240.5 111.8 237.6L150.6 258.7L149.9 259L148.6 259.5L147.5 259.9L146.2 260.4L145.1 260.8L143.7 261.2L142.6 261.5L141.1 261.9L140.1 262.2L138.5 262.6L137.5 262.8C136.9 262.9 136.3 263 135.7 263.2L134.9 263.4C134 263.6 133.1 263.7 132.2 263.8C123.7 265.1 115 264.6 106.7 262.1C105.8 261.8 104.9 261.5 104 261.2L103.2 260.9C102.6 260.6 101.9 260.4 101.3 260.1L100.5 259.8C99.9 259.5 99.2 259.2 98.6 258.9L98 258.6C93.8 256.4 89.9 253.6 86.4 250.3C84.4 248.3 82.5 246.2 80.8 244C84.5 244.1 88.1 243.9 91.7 243.4ZM143.9 121.5C151.5 121.5 159 123.4 165.7 127L166.6 127.5C167 127.7 167.3 127.9 167.7 128.1C168.3 128.5 169 128.9 169.6 129.3C170.2 129.7 170.8 130.2 171.4 130.6L172 131C172.4 131.3 172.8 131.6 173.1 131.9L173.7 132.5C174 132.8 174.4 133.1 174.7 133.4L175.3 134C175.6 134.3 175.9 134.6 176.2 134.9L176.8 135.6C177.1 135.9 177.4 136.2 177.6 136.5L178.2 137.3C178.5 137.6 178.7 137.9 179 138.3L179.6 139.1C179.9 139.4 180.1 139.7 180.3 140.1L180.9 140.9C181.1 141.2 181.4 141.6 181.6 141.9L182.2 142.8C182.4 143.2 182.6 143.5 182.8 143.9L183.3 144.8C183.5 145.2 183.7 145.5 183.9 145.9L184.4 146.9C184.6 147.3 184.8 147.7 185 148L185.5 149C185.7 149.4 185.9 149.8 186 150.2C186.1 150.6 186.3 150.9 186.4 151.2C186.5 151.5 186.7 152 186.9 152.5C187.1 153 187.2 153.2 187.3 153.5C187.4 153.8 187.6 154.4 187.8 154.8C188 155.2 188 155.5 188.2 155.8C188.4 156.1 188.5 156.7 188.6 157.2C188.7 157.7 188.8 157.9 188.9 158.2L189 158.5L150.3 137.5C148.9 132 146.8 126.6 143.9 121.5ZM92 74.7999C96.2 74.1999 100.3 73.8999 104.5 73.8999C110.2 73.8999 115.9 74.4999 121.4 75.7999C127.1 77.0999 132.6 79.1999 137.8 81.9999L165.3 96.9999C164.4 96.7999 163.6 96.4999 162.7 96.2999C152.8 94.0999 142.6 93.7999 132.6 95.2999C123.3 96.5999 114.2 99.2999 105.7 103.2L66.8 82.0999C74.8 78.4999 83.3 76.0999 92 74.7999ZM93.4 110L92.4 110.7C91.9 111 91.4 111.4 90.9 111.7L73.9 102.5L51.9 90.4999L52.9 89.7999L53.7 89.2999C54.9 88.5999 56.1 87.7999 57.3 87.0999C58.5 86.3999 59.9 85.5999 61.2 84.8999L62.1 84.3999C63 83.8999 63.9 83.4999 64.8 83.0999L103.7 104.3C103.1 104.6 102.6 104.9 102 105.2L101 105.7C99.7 106.4 98.4 107.1 97.2 107.8C96 108.5 94.7 109.2 93.4 110ZM85.3 115.8C83.5 117.2 81.7 118.7 80 120.2L64.5 111.8L40.9 98.8999C41.2 98.5999 41.6 98.2999 41.9 97.9999L42.1 97.7999C44.4 95.8999 46.7 93.9999 49.1 92.2999L49.5 91.9999L50.2 91.4999L89.2 112.8C87.9 113.7 86.6 114.7 85.4 115.6L85.3 115.8ZM64.8 136.8C64.3 137.5 63.7 138.2 63.2 138.9L24 117.6C24.5 117 24.9 116.3 25.4 115.7L26.1 114.7C27 113.5 27.9 112.4 28.8 111.3C29.4 110.6 30 109.9 30.7 109.1L69.9 130.4C69.4 131 68.8 131.7 68.3 132.3C67.3 133.5 66.4 134.7 65.5 135.9L64.8 136.8ZM59.8 144.1C58.5 146.1 57.3 148.2 56.2 150.2L39.1 141L16.9 128.9C18 126.8 19.2 124.8 20.5 122.8L20.7 122.5C21.5 121.3 22.2 120.1 23 119L25.1 120.1L62.3 140.3C61.5 141.4 60.8 142.6 60 143.7L59.8 144.1ZM55 152.5C54.3 153.7 53.7 155 53.1 156.3L52.6 157.3C52.1 158.4 51.6 159.5 51.1 160.6L50.7 161.6C50.1 163 49.6 164.3 49.1 165.7L9.80002 144.3C10.3 142.9 10.9 141.5 11.4 140.2C11.6 139.8 11.7 139.4 11.9 139C12.3 138 12.8 137 13.3 136L13.8 134.9C14.4 133.6 15 132.4 15.7 131.2L15.8 131L16.1 130.5L41.7 144.4L55.3 151.8L55 152.5ZM71.4 128.7L71.1 129L32 107.7C33 106.6 34.1 105.5 35.1 104.4L35.3 104.2C36.4 103.1 37.5 102.1 38.6 101L38.7 100.9C39 100.6 39.3 100.4 39.6 100.1L58 110.1L78.8 121.4C76.4 123.7 74 126 71.8 128.5L71.4 128.7ZM69.8 273.2L43 258.7C37.7 255.8 32.9 252.3 28.5 248.2C20.3 240.5 13.9 231 9.60003 220.6C5.00003 209.7 2.70002 197.2 2.80002 183.5C2.80002 181.8 2.80002 180.2 2.90002 178.5C2.90002 178 3.00002 177.5 3.00002 176.9C3.10002 175.8 3.10003 174.6 3.20003 173.5C3.20003 172.9 3.30002 172.3 3.40002 171.6C3.50002 170.6 3.60003 169.6 3.70003 168.6C3.80003 167.9 3.90002 167.3 4.00002 166.6C4.10002 165.6 4.30002 164.7 4.50002 163.7C4.60002 163 4.80002 162.3 4.90002 161.7C5.10002 160.8 5.30002 159.9 5.40002 159C5.50002 158.3 5.70002 157.6 5.90002 156.9C6.10002 156 6.30002 155.1 6.50002 154.3C6.70002 153.6 6.90003 152.9 7.10003 152.2C7.30003 151.5 7.60002 150.5 7.80002 149.7C8.00002 148.9 8.30002 148.3 8.50002 147.5C8.70002 147 8.90002 146.5 9.00002 146L44.3 165.2L48.2 167.3C48 167.9 47.8 168.5 47.6 169.2C47.4 169.9 47.1 170.5 46.9 171.2C46.6 172.1 46.4 173 46.1 173.9C45.9 174.6 45.7 175.3 45.5 175.9C45.3 176.8 45 177.7 44.8 178.6C44.6 179.3 44.5 180 44.3 180.7C44.1 181.6 43.9 182.5 43.8 183.4C43.7 184.1 43.5 184.8 43.4 185.5C43.2 186.4 43.1 187.3 43 188.3C42.9 189 42.8 189.7 42.7 190.5C42.6 191.5 42.5 192.4 42.4 193.4C42.3 194.1 42.2 194.8 42.2 195.5C42.1 196.6 42 197.6 42 198.7C42 199.3 41.9 199.9 41.9 200.5C41.8 202.2 41.8 203.9 41.8 205.6C41.8 219.5 44.1 232.2 48.8 243.4C53.1 254.1 59.7 263.7 68.1 271.7C68.7 272.2 69.3 272.7 69.8 273.2ZM203.9 236.3C199.2 245.6 193.2 254.1 186 261.6C171.7 276.5 152.7 286.1 132.2 289C120.6 290.8 108.7 289.9 97.5 286.6C91 284.6 84.7 281.7 79 278L78.8 277.9C77.7 277.2 76.7 276.5 75.7 275.7L75.4 275.5C74.4 274.8 73.4 274 72.5 273.2L72.2 273C71.2 272.2 70.3 271.4 69.3 270.5C61.1 262.8 54.7 253.3 50.4 242.9C45.8 231.9 43.5 219.5 43.6 205.8C43.6 204.1 43.6 202.4 43.7 200.7C43.7 200.1 43.8 199.5 43.8 198.9C43.9 197.8 43.9 196.8 44 195.7C44.1 195 44.2 194.3 44.2 193.6C44.3 192.6 44.4 191.7 44.5 190.7C44.6 190 44.7 189.3 44.8 188.6C44.9 187.7 45.1 186.8 45.2 185.8C45.3 185.1 45.5 184.4 45.6 183.7C45.8 182.8 45.9 181.9 46.1 181C46.3 180.3 46.4 179.6 46.6 178.9C46.8 178 47 177.1 47.3 176.3C47.5 175.6 47.7 174.9 47.9 174.2C48.2 173.3 48.4 172.5 48.7 171.6C49 170.7 49.2 170.2 49.4 169.5C49.7 168.6 50 167.6 50.4 166.7C50.9 165.3 51.5 163.9 52.1 162.5C52.3 162.1 52.4 161.7 52.6 161.4C53 160.4 53.5 159.3 54 158.3L54.6 157.1C55.1 156 55.6 155 56.2 154L56.7 153.1C58.1 150.4 59.6 147.9 61.2 145.4L61.5 144.9C62.3 143.7 63.1 142.5 63.9 141.3L64 141.2C64.7 140.2 65.5 139.1 66.2 138.1C66.4 137.8 66.6 137.6 66.8 137.3C67.7 136.1 68.7 134.9 69.7 133.7C70.6 132.6 71.6 131.5 72.5 130.4L73.1 129.8C74 128.8 75 127.8 75.9 126.8L76 126.7C77.1 125.6 78.1 124.6 79.2 123.6L79.5 123.3C80.6 122.3 81.7 121.3 82.8 120.4H82.9C84.1 119.4 85.3 118.4 86.5 117.5L86.7 117.4C87.8 116.6 88.9 115.7 90 115L90.7 114.5C91.6 113.8 92.6 113.2 93.5 112.6L94.5 112C95.7 111.2 97 110.4 98.2 109.7C108.9 103.3 120.7 99.1999 133 97.3999C134.2 97.1999 135.4 97.0999 136.6 96.9999L137.7 96.8999C138.5 96.7999 139.4 96.7999 140.2 96.6999L141.4 96.5999C142.2 96.5999 143 96.4999 143.8 96.4999H144.9C146 96.4999 147 96.4999 148 96.4999H148.5C149.6 96.4999 150.6 96.5999 151.7 96.6999H151.9C153 96.7999 154 96.8999 155.1 96.9999L155.7 97.0999C156.7 97.1999 157.7 97.3999 158.8 97.5999L159.3 97.6999C160.3 97.8999 161.4 98.0999 162.4 98.2999C163.4 98.4999 164.4 98.7999 165.4 99.0999L166.1 99.2999C167.1 99.5999 168.1 99.8999 169 100.2H169.1C170.1 100.5 171 100.9 172 101.3L172.4 101.5C174.4 102.3 176.3 103.2 178.2 104.2L178.3 104.3C181.2 105.8 184 107.6 186.6 109.6C193.8 115.1 199.8 122 204.3 129.8C209.1 138.1 212.5 147.2 214.3 156.7L191.2 160.1C187.6 146.1 180.7 135.4 170.7 128.5C160.5 121.4 147.7 118.9 132.7 121C123.5 122.3 114.6 125.4 106.5 130.1C98.5 134.8 91.4 140.9 85.6 148.1C79.6 155.6 74.9 164 71.6 173C68.1 182.5 66.4 192.6 66.4 202.8C66.2 212.5 68 222.1 71.5 231.1C74.6 239 79.4 246.2 85.5 252.2C91.4 257.9 98.6 262.1 106.5 264.4C115 266.9 124 267.5 132.7 266.1C139.8 265.1 146.7 263.1 153.1 260.1H153.2C156.4 258.6 159.4 256.9 162.3 254.9L162.4 254.8C165.3 252.8 168.1 250.5 170.7 248C172 246.8 173.2 245.5 174.3 244.2L174.6 243.8L174.9 243.5C175.3 243.1 175.7 242.6 176 242.2L176.4 241.7L177.2 240.7L177.6 240.2C177.8 239.9 178 239.6 178.2 239.4L178.6 238.9C178.8 238.6 179 238.4 179.2 238.1C180.8 235.8 182.3 233.3 183.7 230.8C184.8 228.7 185.9 226.4 186.9 224.1L187 224C187.3 223.2 187.6 222.5 187.9 221.7L188 221.4C188.1 221.2 188.2 220.9 188.3 220.7C188.5 220.2 188.7 219.7 188.8 219.2L189 218.7L189.1 218.5V218.4C189.3 217.8 189.5 217.3 189.7 216.7L189.9 216L190 215.7C190.1 215.2 190.3 214.7 190.4 214.2C190.5 213.9 190.6 213.6 190.7 213.3L190.8 212.9C190.9 212.4 191.1 211.9 191.2 211.4C191.3 211.1 191.3 210.9 191.4 210.6L214.4 207.4C212 217.1 208.6 227 203.9 236.3Z" fill="#FF361C" stroke="#FF361C" stroke-miterlimit="10"/>
</svg>
