<svg width="1021" height="1383" viewBox="0 0 1021 1383" fill="none" xmlns="http://www.w3.org/2000/svg">
<g clip-path="url(#clip0)">
<path d="M901.186 993.056H900.879L705.6 886.754C705.493 886.697 705.404 886.613 705.341 886.509C705.279 886.406 705.246 886.287 705.246 886.166C705.246 886.045 705.279 885.927 705.341 885.823C705.404 885.719 705.493 885.635 705.6 885.578L824.597 868.815H825.006L1020.23 975.066C1020.34 975.123 1020.43 975.207 1020.49 975.311C1020.56 975.415 1020.59 975.533 1020.59 975.654C1020.59 975.775 1020.56 975.894 1020.49 975.997C1020.43 976.101 1020.34 976.186 1020.23 976.242L901.441 992.954L901.186 993.056ZM707.951 886.549L901.288 991.778L1017.93 975.373L824.597 870.144L707.951 886.549Z" fill="#FF361C"/>
<path d="M803.291 1173H802.984L607.756 1066.75C607.672 1066.69 607.603 1066.62 607.555 1066.53C607.507 1066.44 607.482 1066.34 607.482 1066.24C607.482 1066.14 607.507 1066.04 607.555 1065.95C607.603 1065.86 607.672 1065.78 607.756 1065.73C613.683 1059.95 619.457 1053.87 624.924 1047.69C625.036 1047.61 625.17 1047.57 625.307 1047.57C625.444 1047.57 625.578 1047.61 625.69 1047.69L820.918 1153.94C820.999 1153.99 821.069 1154.06 821.122 1154.13C821.174 1154.21 821.21 1154.3 821.225 1154.4C821.261 1154.48 821.28 1154.57 821.28 1154.65C821.28 1154.74 821.261 1154.83 821.225 1154.91C815.707 1161.14 809.933 1167.23 804.006 1173C803.902 1173.08 803.777 1173.12 803.649 1173.12C803.52 1173.12 803.395 1173.08 803.291 1173ZM609.136 1065.98L803.291 1171.57C808.911 1166.1 814.378 1160.33 819.59 1154.45L625.435 1048.86C620.223 1054.69 614.756 1060.46 609.085 1065.98H609.136Z" fill="#FF361C"/>
<path d="M820.458 1155.01H820.152L624.924 1048.76C624.843 1048.71 624.773 1048.64 624.72 1048.56C624.667 1048.48 624.632 1048.39 624.617 1048.3C624.58 1048.22 624.561 1048.13 624.561 1048.04C624.561 1047.96 624.58 1047.87 624.617 1047.79C632.797 1038.51 640.456 1028.79 647.558 1018.66C647.675 1018.57 647.819 1018.52 647.967 1018.52C648.115 1018.52 648.259 1018.57 648.376 1018.66L843.757 1124.35C843.832 1124.39 843.898 1124.45 843.951 1124.52C844.004 1124.59 844.042 1124.67 844.063 1124.76C844.097 1124.84 844.115 1124.92 844.115 1125.01C844.115 1125.1 844.097 1125.19 844.063 1125.27C836.931 1135.43 829.238 1145.19 821.02 1154.5C820.998 1154.64 820.93 1154.76 820.828 1154.85C820.726 1154.95 820.596 1155 820.458 1155.01V1155.01ZM626.303 1047.94L820.458 1153.58C828.349 1144.6 835.751 1135.2 842.633 1125.42L648.478 1019.78C641.57 1029.47 634.151 1038.79 626.252 1047.69L626.303 1047.94Z" fill="#FF361C"/>
<path d="M843.45 1125.78H843.144L647.916 1019.53C647.84 1019.48 647.774 1019.42 647.722 1019.35C647.669 1019.28 647.631 1019.2 647.609 1019.12C647.575 1019.04 647.558 1018.95 647.558 1018.86C647.558 1018.78 647.575 1018.69 647.609 1018.61C655.346 1007.57 662.426 996.084 668.813 984.213C668.891 984.071 669.018 983.962 669.171 983.907C669.251 983.873 669.338 983.855 669.426 983.855C669.514 983.855 669.601 983.873 669.681 983.907L865.012 1090.11C865.156 1090.19 865.263 1090.33 865.31 1090.49C865.358 1090.65 865.342 1090.83 865.267 1090.98C858.864 1102.9 851.767 1114.43 844.012 1125.52C843.946 1125.61 843.861 1125.68 843.763 1125.72C843.665 1125.77 843.558 1125.79 843.45 1125.78V1125.78ZM649.295 1018.45L843.041 1124.35C850.481 1113.62 857.305 1102.48 863.479 1090.98L669.324 985.338C663.228 996.815 656.49 1007.94 649.142 1018.66L649.295 1018.45Z" fill="#FF361C"/>
<path d="M864.705 1091.28H864.398L669.324 984.979C669.179 984.893 669.073 984.756 669.025 984.594C668.978 984.433 668.993 984.26 669.068 984.11C677.358 968.657 684.546 952.637 690.579 936.172C690.604 936.079 690.65 935.993 690.715 935.922C690.779 935.851 690.859 935.795 690.948 935.76C691.038 935.726 691.134 935.712 691.23 935.722C691.325 935.731 691.417 935.763 691.498 935.814L886.726 1042.06C886.864 1042.13 886.971 1042.25 887.028 1042.39C887.085 1042.53 887.086 1042.69 887.033 1042.83C880.983 1059.35 873.778 1075.42 865.471 1090.92C865.394 1091.07 865.267 1091.17 865.114 1091.23L864.705 1091.28ZM670.55 983.956L864.705 1089.59C872.769 1074.47 879.786 1058.81 885.705 1042.73L691.55 937.092C685.558 953.253 678.456 968.98 670.295 984.161L670.55 983.956Z" fill="#FF361C"/>
<path d="M886.216 1043.29H885.909L690.681 937.041C690.544 936.974 690.436 936.859 690.379 936.717C690.323 936.575 690.321 936.417 690.374 936.274C696.362 919.881 701.344 903.138 705.294 886.139C705.315 886.04 705.358 885.947 705.42 885.867C705.481 885.788 705.561 885.723 705.651 885.679C705.738 885.634 705.835 885.61 705.932 885.61C706.03 885.61 706.127 885.634 706.213 885.679L901.441 991.93C901.567 991.995 901.667 992.102 901.723 992.232C901.779 992.363 901.788 992.509 901.748 992.645C897.788 1009.7 892.788 1026.49 886.778 1042.93C886.71 1043.1 886.582 1043.22 886.42 1043.29H886.216ZM691.754 935.968L885.909 1041.61C891.731 1025.59 896.594 1009.24 900.471 992.645L706.316 887.058C702.44 903.687 697.578 920.071 691.754 936.121V935.968Z" fill="#FF361C"/>
<path d="M803.291 1173H802.984L607.756 1066.75C607.672 1066.7 607.603 1066.62 607.555 1066.53C607.507 1066.44 607.482 1066.34 607.482 1066.24C607.482 1066.14 607.507 1066.04 607.555 1065.95C607.603 1065.86 607.672 1065.78 607.756 1065.73C655.631 1019.07 688.484 958.405 705.447 886.089C705.468 885.99 705.511 885.897 705.573 885.817C705.635 885.738 705.714 885.673 705.805 885.629C705.891 885.584 705.988 885.561 706.086 885.561C706.183 885.561 706.28 885.584 706.367 885.629L901.595 991.88C901.721 991.945 901.82 992.052 901.876 992.183C901.932 992.313 901.941 992.459 901.901 992.595C884.887 1065.37 851.881 1125.98 803.853 1172.85C803.779 1172.92 803.689 1172.97 803.591 1173C803.493 1173.02 803.39 1173.03 803.291 1173V1173ZM609.136 1065.98L803.291 1171.57C850.91 1125.06 883.61 1064.86 900.368 992.697L706.213 887.111C689.353 959.222 656.653 1019.38 609.085 1065.98H609.136Z" fill="#FF361C"/>
<path d="M721.235 1229.99H720.928L525.7 1123.74C525.605 1123.68 525.527 1123.59 525.473 1123.49C525.419 1123.4 525.39 1123.29 525.39 1123.17C525.39 1123.06 525.419 1122.95 525.473 1122.85C525.527 1122.75 525.605 1122.67 525.7 1122.61C540.57 1115.6 554.839 1107.38 568.363 1098.03C568.462 1097.96 568.578 1097.93 568.695 1097.93C568.813 1097.93 568.929 1097.96 569.028 1098.03L764.256 1204.28C764.34 1204.34 764.409 1204.42 764.456 1204.52C764.503 1204.61 764.528 1204.71 764.528 1204.82C764.528 1204.92 764.503 1205.02 764.456 1205.12C764.409 1205.21 764.34 1205.29 764.256 1205.35C750.683 1214.74 736.363 1223 721.439 1230.04L721.235 1229.99ZM527.386 1123.17L721.235 1228.66C735.676 1221.84 749.55 1213.87 762.723 1204.84L568.568 1099.31C555.49 1108.33 541.72 1116.31 527.386 1123.17V1123.17Z" fill="#FF361C"/>
<path d="M764.358 1205.25L763.642 1204.18C774.363 1196.81 784.602 1188.77 794.299 1180.11L795.167 1181.08C785.422 1189.78 775.132 1197.86 764.358 1205.25V1205.25Z" fill="#FF361C"/>
<path d="M763.693 1205.3L568.465 1099.05C568.381 1098.99 568.312 1098.91 568.265 1098.81C568.217 1098.72 568.193 1098.62 568.193 1098.51C568.193 1098.41 568.217 1098.31 568.265 1098.21C568.312 1098.12 568.381 1098.04 568.465 1097.98C579.187 1090.61 589.426 1082.57 599.121 1073.91L599.99 1074.88C590.592 1083.35 580.678 1091.24 570.305 1098.49L764.46 1204.23L763.693 1205.3Z" fill="#FF361C"/>
<path d="M564.685 1383C527.895 1383.16 491.291 1377.77 456.111 1367C405.289 1351.46 358.648 1324.61 319.692 1288.45C279.936 1250.93 248.756 1205.25 228.286 1154.55C206.213 1101.56 195.126 1041.2 195.228 975.117C195.029 910.572 206.452 846.518 228.95 786.022C250.501 728.082 281.586 674.153 320.918 626.467C359.387 580.008 405.612 540.566 457.542 509.892C509.125 479.222 566.308 459.154 625.741 450.864C673.18 443.616 721.551 445.245 768.394 455.668C810.815 465.366 850.716 483.894 885.5 510.046C920.218 536.906 949.417 570.225 971.491 608.171C995.632 649.832 1012.38 695.359 1021 742.735C1021.03 742.816 1021.05 742.903 1021.05 742.99C1021.05 743.078 1021.03 743.165 1021 743.246C1020.95 743.314 1020.89 743.372 1020.82 743.415C1020.75 743.459 1020.67 743.489 1020.59 743.501L901.799 760.213C901.645 760.232 901.489 760.197 901.358 760.113C901.228 760.029 901.13 759.902 901.084 759.753C884.376 691.986 851.779 640.828 804.006 607.66C756.234 574.491 696.353 562.737 625.741 572.703C582.176 578.653 540.212 593.137 502.249 615.326C464.565 637.471 431.165 666.206 403.638 700.163C375.216 735.445 352.777 775.155 337.217 817.708C320.865 862.77 312.597 910.365 312.794 958.303C312.002 1004 320.124 1049.41 336.706 1092C351.346 1129.33 373.742 1163.12 402.412 1191.15C430.185 1217.87 463.863 1237.67 500.716 1248.95C540.785 1260.78 582.971 1263.6 624.26 1257.23C694.871 1247.31 754.957 1218.69 803.087 1172.13C850.961 1125.47 883.814 1064.81 900.777 992.493C900.797 992.365 900.858 992.246 900.95 992.155C901.041 992.063 901.16 992.002 901.288 991.982L1020.08 975.27C1020.18 975.261 1020.28 975.275 1020.38 975.312C1020.47 975.348 1020.56 975.405 1020.63 975.479C1020.69 975.553 1020.75 975.642 1020.78 975.738C1020.8 975.835 1020.81 975.937 1020.8 976.037C1011.35 1027.63 994.504 1077.58 970.775 1124.35C948.135 1169.09 919.042 1210.27 884.427 1246.55C815.103 1318.6 723.517 1365.18 624.464 1378.76C604.661 1381.57 584.686 1382.98 564.685 1383V1383ZM686.389 447.747C666.165 447.785 645.968 449.237 625.946 452.091C566.665 460.385 509.637 480.436 458.206 511.068C406.378 541.719 360.256 581.127 321.889 627.54C282.57 675.103 251.484 728.912 229.921 786.738C207.513 847.007 196.125 910.816 196.301 975.117C196.301 1040.99 207.286 1101.2 229.256 1153.99C249.658 1204.52 280.733 1250.03 320.356 1287.43C359.169 1323.45 405.635 1350.2 456.265 1365.67C510.554 1381.94 567.777 1385.94 623.8 1377.38C722.577 1363.82 813.906 1317.37 883.048 1245.52C917.578 1209.33 946.603 1168.27 969.191 1123.63C992.741 1077.18 1009.48 1027.57 1018.91 976.344L901.39 992.851C884.376 1065.42 851.421 1125.73 803.444 1172.7C755.365 1219.46 695.024 1248.18 624.158 1258.15C582.923 1264.56 540.784 1261.84 500.716 1250.17C463.68 1239.01 429.794 1219.28 401.799 1192.58C372.992 1164.42 350.491 1130.47 335.786 1092.97C319.102 1050.23 310.911 1004.64 311.67 958.763C311.476 910.667 319.779 862.915 336.195 817.708C351.712 774.947 374.152 735.029 402.616 699.55C430.263 665.362 463.84 636.434 501.738 614.15C539.816 591.835 581.92 577.247 625.639 571.22C696.608 560.999 756.847 573.111 804.773 606.433C852.698 639.755 885.347 690.861 902.157 758.68L1019.67 742.173C1011.06 695.178 994.417 650.02 970.469 608.682C948.441 570.925 919.329 537.78 884.734 511.068C850.098 485.04 810.371 466.599 768.139 456.946C741.331 450.762 713.9 447.692 686.389 447.798V447.747Z" fill="#FF361C"/>
<path d="M579.195 1261.52C552.617 1261.66 526.166 1257.84 500.716 1250.17C496.475 1248.84 492.132 1247.41 487.483 1245.67L484.877 1244.65L483.293 1244.04C480.534 1242.97 477.57 1241.84 474.658 1240.56L470.826 1238.88L469.804 1238.42C466.841 1237.09 464.388 1235.91 462.191 1234.84L457.082 1232.34C436.805 1221.76 418.124 1208.38 401.594 1192.57C389.564 1181 378.665 1168.3 369.048 1154.65C368.984 1154.55 368.95 1154.44 368.95 1154.32C368.95 1154.2 368.984 1154.09 369.048 1153.99C369.108 1153.88 369.198 1153.8 369.308 1153.74C369.417 1153.69 369.54 1153.67 369.661 1153.68C389.55 1154.58 409.479 1153.61 429.185 1150.77C499.796 1140.85 559.882 1112.18 607.756 1065.68C607.865 1065.59 608 1065.54 608.14 1065.54C608.279 1065.54 608.414 1065.59 608.523 1065.68L803.751 1171.93C803.832 1171.98 803.901 1172.04 803.954 1172.12C804.007 1172.2 804.042 1172.29 804.057 1172.39C804.098 1172.48 804.12 1172.57 804.12 1172.67C804.12 1172.77 804.098 1172.86 804.057 1172.95C755.978 1219.71 695.688 1248.43 624.771 1258.4V1257.79V1258.4C609.671 1260.51 594.441 1261.55 579.195 1261.52V1261.52ZM370.938 1155.01C380.303 1168.2 390.873 1180.48 402.514 1191.71C418.954 1207.42 437.531 1220.74 457.695 1231.26L462.804 1233.77C465.001 1234.84 467.403 1236.02 470.417 1237.34L471.439 1237.8L475.22 1239.49C478.132 1240.72 481.045 1241.89 483.804 1242.91L485.388 1243.53L487.993 1244.55C492.643 1246.24 496.935 1247.72 501.176 1249C541.103 1260.74 583.125 1263.55 624.26 1257.22C694.564 1247.36 754.446 1218.89 802.218 1172.69L608.063 1067.11C560.035 1113.67 499.847 1142.29 429.236 1152.25C409.929 1154.95 390.414 1155.88 370.938 1155.01V1155.01Z" fill="#FF361C"/>
<path d="M901.595 760.059H901.288L706.06 653.808C705.983 653.766 705.915 653.707 705.862 653.637C705.809 653.566 705.772 653.485 705.754 653.399C698.743 623.673 687.251 595.188 671.674 568.92C671.616 568.819 671.585 568.704 671.585 568.587C671.585 568.471 671.616 568.356 671.674 568.255C671.674 567.846 672.441 567.949 672.9 567.949C712.172 567.235 750.983 576.483 785.715 594.831C787.605 595.853 789.496 596.977 791.284 598.05L792.101 598.51L793.43 599.277L795.32 600.401C798.488 602.343 801.656 604.439 804.67 606.534C852.596 639.856 885.398 691.269 902.208 759.343C902.266 759.444 902.297 759.559 902.297 759.676C902.297 759.792 902.266 759.907 902.208 760.008L901.595 760.059ZM706.929 652.735L900.675 758.168C883.865 691.116 851.37 640.622 804.006 607.505C800.992 605.41 797.875 603.366 794.707 601.423L792.817 600.299L791.488 599.533L790.671 599.073C788.883 597.999 786.992 596.875 785.102 595.853C750.698 577.676 712.263 568.483 673.36 569.124C688.659 595.18 699.974 623.38 706.929 652.786V652.735Z" fill="#FF361C"/>
<path d="M792.663 113.201C766.17 106.722 738.639 105.679 711.731 110.134H711.323L516.044 3.83224C515.917 3.79451 515.806 3.71693 515.727 3.61103C515.648 3.50514 515.606 3.37659 515.606 3.24451C515.606 3.11243 515.648 2.98389 515.727 2.87799C515.806 2.7721 515.917 2.69451 516.044 2.65678C543.22 -1.87373 571.033 -0.830464 597.793 5.72319L793.174 112.025C793.275 112.105 793.35 112.213 793.391 112.335C793.431 112.457 793.436 112.588 793.403 112.713C793.371 112.837 793.303 112.95 793.208 113.036C793.113 113.123 792.995 113.18 792.868 113.201H792.663ZM746.679 106.199C760.603 106.135 774.488 107.661 788.065 110.748L597.129 6.89865C571.309 0.592772 544.494 -0.519029 518.241 3.62781L711.629 108.857C723.221 107.177 734.916 106.306 746.628 106.25L746.679 106.199Z" fill="#FF361C"/>
<path d="M869.048 133.389C852.747 133.227 836.65 129.749 821.736 123.167V123.167C797.568 114.019 767.525 102.725 711.783 110.391H711.374L516.044 3.83298C515.917 3.79525 515.806 3.71767 515.727 3.61177C515.648 3.50588 515.606 3.37733 515.606 3.24525C515.606 3.11317 515.648 2.98462 515.727 2.87873C515.806 2.77283 515.917 2.69525 516.044 2.65752C572.246 -5.11071 602.443 6.23499 626.763 15.332C647.2 23.1002 662.528 28.722 696.914 23.9179H697.323L892.551 130.169C892.678 130.207 892.789 130.284 892.868 130.39C892.947 130.496 892.989 130.625 892.989 130.757C892.989 130.889 892.947 131.017 892.868 131.123C892.789 131.229 892.678 131.307 892.551 131.344C884.774 132.574 876.921 133.257 869.048 133.389V133.389ZM746.833 106.2C772.678 106.205 798.257 111.419 822.042 121.532V121.532C842.48 129.147 857.092 134.717 890.252 130.373L697.068 25.5534C662.324 30.4085 647.303 24.7356 626.508 16.9163C602.647 7.87041 572.962 -3.5264 518.445 3.88408L711.629 108.857C723.272 107.174 735.018 106.303 746.782 106.251L746.833 106.2Z" fill="#FF361C"/>
<path d="M495.095 283.845C469.204 283.812 443.58 278.599 419.732 268.513C399.04 260.642 383.967 254.969 349.326 259.876C349.245 259.909 349.158 259.927 349.07 259.927C348.983 259.927 348.896 259.909 348.815 259.876C348.76 259.727 348.76 259.564 348.815 259.416V160.677C348.814 160.523 348.872 160.375 348.976 160.261C349.08 160.147 349.223 160.077 349.377 160.064C405.58 152.194 435.674 163.642 459.892 172.892H460.25C480.687 180.609 496.015 186.231 530.248 181.376C564.48 176.521 579.706 166.708 600.399 153.165H600.705C625.026 137.117 655.324 117.39 711.374 109.264V109.877V109.264C767.576 101.394 797.671 112.842 821.991 122.092C842.428 129.86 857.756 135.482 892.142 130.627C892.223 130.593 892.31 130.576 892.398 130.576C892.485 130.576 892.572 130.593 892.653 130.627C892.708 130.775 892.708 130.938 892.653 131.087V229.825C892.654 229.979 892.596 230.128 892.492 230.241C892.388 230.355 892.245 230.425 892.091 230.438C836.399 238.258 806.101 226.861 781.729 217.662C761.037 209.842 745.964 204.169 711.323 209.024C676.681 213.88 661.558 223.794 640.814 237.44C616.442 253.487 586.042 273.47 530.248 281.341C518.603 282.993 506.857 283.83 495.095 283.845V283.845ZM372.982 256.656C389.324 256.88 405.446 260.464 420.346 267.184C444.666 276.332 474.862 287.627 530.299 279.961C585.735 272.295 616.085 252.261 640.354 236.264C661.251 222.517 676.119 212.551 711.374 207.645C746.628 202.738 761.496 208.411 782.394 216.333C806.561 225.43 836.604 236.775 891.58 229.109V131.649C857.245 136.351 842.224 130.729 821.531 122.91C797.364 113.761 767.321 102.467 711.578 110.133C655.835 117.799 625.69 137.986 601.472 153.829H601.165C580.37 167.475 565.4 177.338 530.503 182.245C495.606 187.151 480.636 181.733 459.841 173.761H459.483C435.469 164.613 405.58 153.318 350.143 160.933V258.394C357.708 257.296 365.338 256.715 372.982 256.656V256.656Z" fill="#FF361C"/>
<path d="M349.275 259.774H348.968L153.74 153.319C153.636 153.265 153.549 153.185 153.486 153.086C153.423 152.987 153.387 152.874 153.382 152.757V54.0184C153.39 53.9134 153.423 53.8118 153.478 53.722C153.533 53.6322 153.609 53.5567 153.698 53.5018C153.788 53.4469 153.89 53.4141 153.995 53.4062C154.1 53.3983 154.205 53.4154 154.302 53.4562L349.786 159.809C349.889 159.863 349.977 159.944 350.04 160.042C350.103 160.141 350.138 160.255 350.143 160.372V259.11C350.149 259.223 350.123 259.335 350.069 259.434C350.015 259.533 349.935 259.616 349.837 259.672L349.275 259.774ZM154.66 152.45L348.815 257.985V160.883L154.66 55.3472V152.45Z" fill="#FF361C"/>
<path d="M430.411 164.101C403.935 157.622 376.421 156.579 349.53 161.035V159.757C376.573 155.274 404.243 156.317 430.871 162.824L430.411 164.101Z" fill="#FF361C"/>
<path d="M349.173 160.935L153.945 54.7354C153.818 54.6977 153.707 54.6201 153.628 54.5142C153.549 54.4083 153.507 54.2798 153.507 54.1477C153.507 54.0156 153.549 53.8871 153.628 53.7812C153.707 53.6753 153.818 53.5977 153.945 53.56C180.987 49.0769 208.657 50.12 235.285 56.6264L234.979 57.853C209.147 51.5124 182.312 50.3831 156.039 54.531L349.786 159.811L349.173 160.935Z" fill="#FF361C"/>
<path d="M507.154 184.289C498.365 184.349 489.606 183.267 481.096 181.069V181.069L285.664 74.7674C285.556 74.6783 285.479 74.5574 285.444 74.422C285.409 74.2866 285.417 74.1435 285.468 74.0132C285.519 73.883 285.61 73.7721 285.728 73.6965C285.845 73.6208 285.984 73.5842 286.123 73.592C302.154 77.4075 318.799 77.8772 335.02 74.9719C349.719 73.25 364.061 69.2499 377.53 63.1151C377.617 63.0703 377.713 63.0469 377.811 63.0469C377.908 63.0469 378.005 63.0703 378.092 63.1151L573.32 169.366C573.415 169.426 573.493 169.509 573.547 169.607C573.601 169.705 573.63 169.816 573.63 169.928C573.63 170.04 573.601 170.151 573.547 170.249C573.493 170.348 573.415 170.431 573.32 170.49C559.74 176.694 545.278 180.746 530.452 182.5C522.737 183.637 514.952 184.235 507.154 184.289ZM481.607 179.843C497.621 183.653 514.248 184.123 530.452 181.223C544.737 179.531 558.687 175.706 571.838 169.877L377.836 64.3928C364.326 70.5136 349.953 74.5129 335.224 76.2495C320.406 78.8178 305.248 78.714 290.466 75.9429L481.607 179.843Z" fill="#FF361C"/>
<path d="M573.115 170.544H572.809L377.53 64.242C377.435 64.1822 377.356 64.0992 377.302 64.0009C377.248 63.9026 377.219 63.7922 377.219 63.6799C377.219 63.5676 377.248 63.4571 377.302 63.3588C377.356 63.2605 377.435 63.1775 377.53 63.1177C387.106 58.3349 396.327 52.8694 405.12 46.7635H405.427C418.292 37.8986 431.802 30.0062 445.841 23.1522C445.928 23.1074 446.025 23.084 446.123 23.084C446.22 23.084 446.317 23.1074 446.404 23.1522L641.734 129.199C641.829 129.259 641.907 129.342 641.961 129.44C642.015 129.538 642.044 129.649 642.044 129.761C642.044 129.873 642.015 129.984 641.961 130.082C641.907 130.18 641.829 130.263 641.734 130.323C627.747 137.146 614.289 145.004 601.472 153.832V153.832C592.597 159.979 583.291 165.479 573.626 170.289L573.115 170.544ZM379.267 63.731L573.115 169.164C582.614 164.397 591.766 158.967 600.501 152.912V152.912C613.03 144.298 626.16 136.595 639.792 129.863L446.199 24.2254C432.307 31.0151 418.935 38.8216 406.193 47.5812H405.886C397.383 53.5519 388.49 58.9471 379.267 63.731V63.731Z" fill="#FF361C"/>
<path d="M641.427 130.372H641.12L445.892 24.07C445.797 24.0101 445.719 23.9272 445.665 23.8289C445.611 23.7306 445.582 23.6201 445.582 23.5078C445.582 23.3955 445.611 23.2851 445.665 23.1867C445.719 23.0884 445.797 23.0055 445.892 22.9456C468.109 12.6547 491.765 5.81288 516.044 2.65625H516.453L711.68 108.907C711.807 108.945 711.918 109.023 711.997 109.128C712.076 109.234 712.118 109.363 712.118 109.495C712.118 109.627 712.076 109.756 711.997 109.861C711.918 109.967 711.807 110.045 711.68 110.083C687.476 113.294 663.905 120.188 641.785 130.525L641.427 130.372ZM447.63 23.5589L641.478 129.043C663.053 119.08 685.99 112.38 709.535 109.163L516.044 3.93392C492.391 7.04022 469.333 13.6545 447.63 23.5589V23.5589Z" fill="#FF361C"/>
<path d="M506.949 184.29C490.696 184.003 474.67 180.422 459.841 173.762H459.483C435.418 164.562 405.426 153.319 349.581 160.985H349.173L153.945 54.734C153.818 54.6963 153.707 54.6187 153.628 54.5128C153.549 54.4069 153.507 54.2784 153.507 54.1463C153.507 54.0142 153.549 53.8857 153.628 53.7798C153.707 53.6739 153.818 53.5963 153.945 53.5586C210.147 45.637 240.241 57.1361 264.46 66.3864H264.817C285.255 74.1035 300.583 79.7252 334.815 74.8701C369.048 70.015 384.325 60.2025 404.967 46.6081H405.273C429.849 30.6628 460.096 10.5267 516.044 2.65625H516.452L711.68 108.907C711.807 108.945 711.918 109.023 711.997 109.128C712.076 109.234 712.118 109.363 712.118 109.495C712.118 109.627 712.076 109.756 711.997 109.861C711.918 109.967 711.807 110.045 711.68 110.083C655.886 117.902 625.792 137.834 601.574 153.779H601.268C580.473 167.424 565.502 177.288 530.605 182.194C522.779 183.447 514.874 184.147 506.949 184.29ZM384.836 157.101C410.649 157.09 436.198 162.306 459.943 172.433H460.301C480.738 180.15 496.066 185.772 530.299 180.917C564.531 176.062 579.757 166.249 600.45 152.706H600.757C624.822 136.863 654.66 116.931 709.483 109.061L516.044 3.93392C460.505 11.8044 430.411 31.6338 406.193 47.5791H405.886C385.091 61.2246 370.121 71.1393 335.224 75.9945C300.327 80.8496 285.408 75.2279 264.562 67.4596H264.204C240.395 58.3626 210.812 47.0169 156.244 54.4274L349.581 159.707C361.258 158.021 373.038 157.15 384.836 157.101V157.101Z" fill="#FF361C"/>
<path d="M390.507 1339.3H390.201L194.922 1233C169.399 1219.09 145.727 1202.02 124.464 1182.2C84.7068 1144.68 53.5264 1099 33.0578 1048.3C10.9854 995.304 0.000302867 934.947 0.000302867 868.814C-0.161634 805.637 10.8037 742.925 32.3935 683.552C32.4187 683.46 32.4652 683.374 32.5294 683.303C32.5936 683.231 32.6736 683.176 32.7631 683.141C32.8526 683.107 32.949 683.093 33.0445 683.102C33.1401 683.112 33.2321 683.143 33.3132 683.195L228.541 789.446C228.679 789.512 228.786 789.628 228.843 789.77C228.899 789.911 228.901 790.069 228.848 790.212C207.296 849.451 196.348 912.026 196.506 975.065C196.506 1040.94 207.491 1101.15 229.461 1153.94C249.862 1204.46 280.938 1249.98 320.561 1287.38C341.702 1307.09 365.236 1324.08 390.61 1337.92V1337.92C390.71 1338 390.785 1338.11 390.826 1338.23C390.867 1338.36 390.871 1338.49 390.839 1338.61C390.806 1338.74 390.738 1338.85 390.643 1338.93C390.548 1339.02 390.43 1339.08 390.303 1339.1L390.507 1339.3ZM33.3643 684.83C12.0057 743.812 1.14591 806.082 1.27764 868.814C1.27764 934.691 12.2627 994.895 34.2329 1047.69C54.6342 1098.21 85.7099 1143.73 125.332 1181.13C146.524 1200.85 170.109 1217.83 195.535 1231.67L364.807 1323.66C348.805 1313.01 333.715 1301.04 319.692 1287.89C279.936 1250.36 248.756 1204.69 228.286 1153.99C206.213 1100.99 195.126 1040.64 195.228 974.554C195.067 911.561 205.962 849.028 227.417 789.803L33.3643 684.83Z" fill="#FF361C"/>
<path d="M228.235 790.724H227.928L32.7002 684.422C32.5628 684.355 32.4553 684.24 32.3986 684.098C32.3419 683.956 32.3401 683.798 32.3936 683.655L33.722 680.078C42.8083 655.869 53.4934 632.291 65.7065 609.5C65.7439 609.423 65.7968 609.355 65.8619 609.3C65.927 609.245 66.0028 609.204 66.0845 609.18C66.1662 609.156 66.252 609.149 66.3365 609.16C66.421 609.171 66.5022 609.2 66.5751 609.244L261.803 715.495C261.948 715.581 262.054 715.718 262.102 715.879C262.149 716.04 262.134 716.213 262.059 716.364C249.797 739.083 239.061 762.593 229.921 786.738L228.592 790.315C228.525 790.477 228.396 790.606 228.235 790.673V790.724ZM33.7731 683.4L227.928 789.038L229.001 786.176C238.012 762.166 248.594 738.777 260.679 716.159L66.4218 610.675C54.3542 633.241 43.789 656.58 34.795 680.538L33.7731 683.4Z" fill="#FF361C"/>
<path d="M261.496 716.668H261.19L65.9617 610.366C65.8172 610.28 65.7105 610.143 65.6631 609.982C65.6157 609.821 65.6311 609.647 65.7063 609.497C75.8348 590.66 87.0606 572.435 99.3258 554.915C99.4425 554.824 99.5864 554.774 99.7345 554.774C99.8826 554.774 100.027 554.824 100.143 554.915L295.371 661.166C295.447 661.211 295.513 661.27 295.565 661.34C295.618 661.41 295.656 661.49 295.678 661.575C295.712 661.656 295.729 661.743 295.729 661.83C295.729 661.918 295.712 662.005 295.678 662.086C283.429 679.571 272.22 697.763 262.109 716.566C262.032 716.708 261.904 716.817 261.752 716.872L261.496 716.668ZM67.3413 609.344L261.496 714.981C271.429 696.545 282.415 678.696 294.4 661.524L100.245 555.886C88.1809 573.118 77.1261 591.035 67.1369 609.548L67.3413 609.344Z" fill="#FF361C"/>
<path d="M295.116 662.138H294.809L99.5813 555.836C99.5057 555.792 99.4397 555.733 99.3871 555.662C99.3345 555.592 99.2963 555.512 99.2747 555.427C99.241 555.346 99.2236 555.26 99.2236 555.172C99.2236 555.084 99.241 554.997 99.2747 554.916C107.552 543.111 116.391 531.509 125.588 520.47C129.164 516.126 132.894 511.782 136.726 507.438C136.838 507.359 136.972 507.316 137.109 507.316C137.247 507.316 137.381 507.359 137.493 507.438L332.721 613.689C332.802 613.739 332.871 613.806 332.924 613.886C332.977 613.965 333.012 614.055 333.027 614.149C333.064 614.229 333.083 614.316 333.083 614.405C333.083 614.493 333.064 614.58 333.027 614.66C329.297 618.851 325.568 623.246 321.94 627.641C312.794 638.68 303.955 650.23 295.729 661.985C295.648 662.059 295.549 662.112 295.442 662.139C295.335 662.166 295.223 662.166 295.116 662.138V662.138ZM100.961 554.814L295.116 660.452C303.291 648.851 312.028 637.403 321.071 626.517C324.546 622.275 328.122 618.135 331.699 614.098L137.544 508.511C133.865 512.702 130.237 516.944 126.763 521.135C117.515 532.123 108.931 543.468 100.808 555.07L100.961 554.814Z" fill="#FF361C"/>
<path d="M332.517 614.761H332.21L136.931 508.408C136.85 508.358 136.78 508.291 136.728 508.211C136.675 508.132 136.639 508.042 136.624 507.948C136.588 507.868 136.569 507.78 136.569 507.692C136.569 507.604 136.588 507.517 136.624 507.437C149.875 492.523 163.966 478.377 178.828 465.069C178.932 464.994 179.057 464.954 179.185 464.954C179.314 464.954 179.439 464.994 179.543 465.069L374.771 571.32C374.846 571.383 374.906 571.461 374.948 571.549C374.989 571.637 375.011 571.734 375.011 571.831C375.011 571.929 374.989 572.025 374.948 572.114C374.906 572.202 374.846 572.28 374.771 572.342C359.977 585.672 345.955 599.835 332.772 614.761C332.688 614.779 332.601 614.779 332.517 614.761ZM138.362 507.692L332.108 613.279C344.954 598.683 358.6 584.812 372.983 571.729L178.828 466.142C164.547 479.231 151.003 493.102 138.259 507.692H138.362Z" fill="#FF361C"/>
<path d="M374.515 572.395H374.208L178.827 465.94C178.752 465.878 178.692 465.799 178.65 465.711C178.609 465.623 178.587 465.526 178.587 465.429C178.587 465.331 178.609 465.235 178.65 465.147C178.692 465.058 178.752 464.98 178.827 464.918C195.198 450.208 212.485 436.552 230.585 424.032C230.686 423.974 230.8 423.943 230.917 423.943C231.033 423.943 231.148 423.974 231.249 424.032L426.477 530.283C426.573 530.336 426.653 530.414 426.708 530.508C426.764 530.603 426.793 530.71 426.793 530.82C426.793 530.929 426.764 531.037 426.708 531.131C426.653 531.226 426.573 531.304 426.477 531.357C408.408 543.874 391.155 557.53 374.821 572.242C374.734 572.319 374.629 572.372 374.515 572.395V572.395ZM180.36 465.071L374.515 570.658C390.529 556.266 407.422 542.884 425.097 530.59L230.942 425.054C213.268 437.331 196.375 450.696 180.36 465.071V465.071Z" fill="#FF361C"/>
<path d="M426.222 531.509H425.915L230.687 425.053C230.592 425 230.512 424.923 230.456 424.828C230.4 424.734 230.371 424.626 230.371 424.517C230.371 424.407 230.4 424.3 230.456 424.205C230.512 424.111 230.592 424.033 230.687 423.98C240.906 416.927 251.585 410.079 262.365 403.537C274.934 396.076 287.912 389.228 300.839 383.095C300.95 383.068 301.066 383.073 301.174 383.11C301.283 383.146 301.379 383.211 301.452 383.299L496.629 489.499C496.724 489.559 496.802 489.642 496.856 489.74C496.91 489.838 496.939 489.949 496.939 490.061C496.939 490.173 496.91 490.284 496.856 490.382C496.802 490.481 496.724 490.564 496.629 490.623C483.651 496.756 470.724 503.604 458.258 511.066C447.477 517.454 436.849 524.252 426.631 531.509H426.222ZM232.22 424.185L426.375 529.72C436.594 522.718 446.813 515.972 457.747 509.635C469.907 502.429 482.476 495.734 495.096 489.703L301.094 384.526C288.219 390.607 275.547 397.405 262.978 404.968C252.504 410.999 242.132 417.592 232.22 424.185Z" fill="#FF361C"/>
<path d="M496.628 490.623L496.066 489.448C537.121 470.129 580.856 457.121 625.793 450.862C673.231 443.614 721.602 445.243 768.445 455.666L775.956 457.506L775.65 458.733L768.19 456.893C721.499 446.499 673.283 444.87 625.997 452.089C581.181 458.349 537.567 471.34 496.628 490.623V490.623Z" fill="#FF361C"/>
<path d="M496.015 490.624L300.787 384.373C300.692 384.313 300.614 384.23 300.56 384.132C300.505 384.034 300.477 383.923 300.477 383.811C300.477 383.699 300.505 383.588 300.56 383.49C300.614 383.392 300.692 383.309 300.787 383.249C341.842 363.931 385.577 350.923 430.513 344.663C477.952 337.417 526.323 339.046 573.166 349.467L580.677 351.307L580.37 352.534L572.911 350.694C526.236 340.307 478.038 338.678 430.769 345.89C386.387 352.07 343.179 364.852 302.575 383.811L496.731 489.449L496.015 490.624Z" fill="#FF361C"/>
<path d="M847.64 486.945H847.334C843.808 485.003 840.13 483.112 836.502 481.324L641.223 375.022C641.078 374.936 640.972 374.799 640.924 374.638C640.877 374.476 640.892 374.303 640.967 374.153C641.005 374.076 641.058 374.008 641.123 373.953C641.188 373.898 641.264 373.858 641.345 373.834C641.427 373.809 641.513 373.803 641.598 373.814C641.682 373.825 641.763 373.853 641.836 373.897C645.515 375.686 649.142 377.577 652.719 379.519L848.151 485.514C848.252 485.595 848.327 485.702 848.368 485.824C848.408 485.946 848.413 486.077 848.38 486.202C848.348 486.326 848.28 486.439 848.185 486.525C848.09 486.612 847.972 486.669 847.845 486.69L847.64 486.945Z" fill="#FF361C"/>
<path d="M390.507 1339.3H390.201L194.921 1233C169.398 1219.09 145.727 1202.02 124.464 1182.2C84.7065 1144.68 53.5262 1099 33.0575 1048.3C10.9851 995.303 2.58519e-05 934.946 2.58519e-05 868.814C-0.204991 804.268 11.218 740.213 33.7217 679.719C55.2698 621.777 86.3546 567.848 125.69 520.164C164.172 473.759 210.396 434.371 262.314 403.743C313.893 373.054 371.076 352.969 430.513 344.663C477.952 337.417 526.323 339.046 573.166 349.467C600.883 355.91 627.618 366.015 652.668 379.518L848.151 485.513C848.3 485.595 848.411 485.732 848.459 485.895C848.507 486.058 848.488 486.233 848.406 486.382C848.325 486.531 848.188 486.642 848.025 486.69C847.862 486.738 847.687 486.719 847.538 486.638C822.586 473.183 795.953 463.111 768.343 456.689C721.652 446.295 673.436 444.666 626.15 451.885C566.784 460.216 509.683 480.338 458.206 511.067C406.378 541.718 360.256 581.126 321.889 627.539C282.57 675.102 251.484 728.911 229.92 786.737C207.512 847.006 196.125 910.815 196.301 975.116C196.301 1040.99 207.286 1101.2 229.256 1153.99C249.658 1204.51 280.733 1250.03 320.356 1287.43C341.501 1307.13 365.035 1324.09 390.405 1337.92C390.506 1338 390.581 1338.11 390.621 1338.23C390.662 1338.35 390.666 1338.49 390.634 1338.61C390.601 1338.74 390.534 1338.85 390.439 1338.93C390.343 1339.02 390.225 1339.08 390.098 1339.1L390.507 1339.3ZM491.161 341.597C470.937 341.635 450.74 343.087 430.718 345.941C371.448 354.188 314.421 374.187 262.978 404.765C211.131 435.431 164.992 474.856 126.61 521.288C87.396 568.871 56.4147 622.679 34.9479 680.486C12.5242 740.734 1.11908 804.526 1.27736 868.814C1.27736 934.691 12.2624 994.894 34.2326 1047.69C54.6339 1098.21 85.7096 1143.73 125.332 1181.13C146.523 1200.85 170.109 1217.83 195.535 1231.67L364.807 1323.66C348.806 1313.01 333.716 1301.04 319.692 1287.89C279.936 1250.36 248.756 1204.69 228.285 1153.99C206.213 1100.99 195.126 1040.64 195.228 974.554C195.029 910.009 206.451 845.955 228.95 785.459C250.501 727.519 281.586 673.59 320.918 625.904C359.434 579.646 405.656 540.397 457.542 509.891C509.125 479.221 566.308 459.153 625.741 450.863C673.18 443.617 721.551 445.246 768.394 455.667C787.106 460.06 805.399 466.08 823.064 473.657L652.054 380.642C627.102 367.188 600.47 357.116 572.86 350.694C546.067 344.531 518.653 341.478 491.161 341.597V341.597Z" fill="#FF361C"/>
</g>
<defs>
<clipPath id="clip0">
<rect width="1021" height="1383" fill="white"/>
</clipPath>
</defs>
</svg>
